<?xml version="1.0" encoding="UTF-8" standalone="no"?>
<!DOCTYPE svg PUBLIC "-//W3C//DTD SVG 1.1//EN"
 "http://www.w3.org/Graphics/SVG/1.1/DTD/svg11.dtd">
<!-- Generated by graphviz version 14.1.2 (20260124.0452)
 -->
<!-- Title: bridge Pages: 1 -->
<svg width="1385pt" height="983pt"
 viewBox="0.00 0.00 1385.00 983.00" xmlns="http://www.w3.org/2000/svg" xmlns:xlink="http://www.w3.org/1999/xlink">
<g id="graph0" class="graph" transform="scale(1 1) rotate(0) translate(4 978.73)">
<title>bridge</title>
<polygon fill="white" stroke="none" points="-4,4 -4,-978.73 1380.5,-978.73 1380.5,4 -4,4"/>
<g id="clust1" class="cluster">
<title>cluster_ext</title>
<path fill="#fff4e5" stroke="#c97a00" d="M659.12,-256.73C659.12,-256.73 799.88,-256.73 799.88,-256.73 805.88,-256.73 811.88,-262.73 811.88,-268.73 811.88,-268.73 811.88,-350.73 811.88,-350.73 811.88,-356.73 805.88,-362.73 799.88,-362.73 799.88,-362.73 659.12,-362.73 659.12,-362.73 653.12,-362.73 647.12,-356.73 647.12,-350.73 647.12,-350.73 647.12,-268.73 647.12,-268.73 647.12,-262.73 653.12,-256.73 659.12,-256.73"/>
<text xml:space="preserve" text-anchor="middle" x="729.5" y="-348.28" font-family="Helvetica,sans-Serif" font-size="11.00" fill="#8a5400">cliente local (PC)</text>
</g>
<g id="clust2" class="cluster">
<title>cluster_api</title>
<path fill="#eef7ff" stroke="#2d6cdf" d="M22.25,-370.73C22.25,-370.73 793.88,-370.73 793.88,-370.73 799.88,-370.73 805.88,-376.73 805.88,-382.73 805.88,-382.73 805.88,-840.73 805.88,-840.73 805.88,-846.73 799.88,-852.73 793.88,-852.73 793.88,-852.73 22.25,-852.73 22.25,-852.73 16.25,-852.73 10.25,-846.73 10.25,-840.73 10.25,-840.73 10.25,-382.73 10.25,-382.73 10.25,-376.73 16.25,-370.73 22.25,-370.73"/>
<text xml:space="preserve" text-anchor="middle" x="408.06" y="-838.28" font-family="Helvetica,sans-Serif" font-size="11.00" fill="#1d4f9e">memex API (FastAPI, en VPS)</text>
</g>
<g id="clust3" class="cluster">
<title>cluster_routers</title>
<path fill="#dceeff" stroke="#2d6cdf" d="M292.5,-378.73C292.5,-378.73 437.75,-378.73 437.75,-378.73 443.75,-378.73 449.75,-384.73 449.75,-390.73 449.75,-390.73 449.75,-760.73 449.75,-760.73 449.75,-766.73 443.75,-772.73 437.75,-772.73 437.75,-772.73 292.5,-772.73 292.5,-772.73 286.5,-772.73 280.5,-766.73 280.5,-760.73 280.5,-760.73 280.5,-390.73 280.5,-390.73 280.5,-384.73 286.5,-378.73 292.5,-378.73"/>
<text xml:space="preserve" text-anchor="middle" x="365.12" y="-758.28" font-family="Helvetica,sans-Serif" font-size="11.00" fill="#1d4f9e">api/routers/ &#160;(peers)</text>
</g>
<g id="clust4" class="cluster">
<title>cluster_core</title>
<path fill="#f6f1ff" stroke="#7a4ddb" d="M631.75,-78.73C631.75,-78.73 827.25,-78.73 827.25,-78.73 833.25,-78.73 839.25,-84.73 839.25,-90.73 839.25,-90.73 839.25,-236.73 839.25,-236.73 839.25,-242.73 833.25,-248.73 827.25,-248.73 827.25,-248.73 631.75,-248.73 631.75,-248.73 625.75,-248.73 619.75,-242.73 619.75,-236.73 619.75,-236.73 619.75,-90.73 619.75,-90.73 619.75,-84.73 625.75,-78.73 631.75,-78.73"/>
<text xml:space="preserve" text-anchor="middle" x="729.5" y="-234.28" font-family="Helvetica,sans-Serif" font-size="11.00" fill="#4a2da0">memex.core</text>
</g>
<g id="clust5" class="cluster">
<title>cluster_db</title>
<path fill="#ecffe8" stroke="#2f8f2f" d="M961.25,-16.73C961.25,-16.73 1356.5,-16.73 1356.5,-16.73 1362.5,-16.73 1368.5,-22.73 1368.5,-28.73 1368.5,-28.73 1368.5,-135.73 1368.5,-135.73 1368.5,-141.73 1362.5,-147.73 1356.5,-147.73 1356.5,-147.73 961.25,-147.73 961.25,-147.73 955.25,-147.73 949.25,-141.73 949.25,-135.73 949.25,-135.73 949.25,-28.73 949.25,-28.73 949.25,-22.73 955.25,-16.73 961.25,-16.73"/>
<text xml:space="preserve" text-anchor="middle" x="1158.88" y="-133.28" font-family="Helvetica,sans-Serif" font-size="11.00" fill="#1f6b1f">memex.db</text>
</g>
<g id="clust6" class="cluster">
<title>cluster_outscope</title>
<path fill="white" stroke="#999999" stroke-dasharray="5,2" d="M20,-860.73C20,-860.73 153.25,-860.73 153.25,-860.73 159.25,-860.73 165.25,-866.73 165.25,-872.73 165.25,-872.73 165.25,-954.73 165.25,-954.73 165.25,-960.73 159.25,-966.73 153.25,-966.73 153.25,-966.73 20,-966.73 20,-966.73 14,-966.73 8,-960.73 8,-954.73 8,-954.73 8,-872.73 8,-872.73 8,-866.73 14,-860.73 20,-860.73"/>
<text xml:space="preserve" text-anchor="middle" x="86.62" y="-952.28" font-family="Helvetica,sans-Serif" font-size="11.00" fill="#666666">NO incluido en el bridge</text>
</g>
<!-- LOCAL -->
<g id="node1" class="node">
<title>LOCAL</title>
<path fill="#ffffff" stroke="#c97a00" stroke-width="1.2" d="M791.88,-332.73C791.88,-332.73 667.12,-332.73 667.12,-332.73 661.12,-332.73 655.12,-326.73 655.12,-320.73 655.12,-320.73 655.12,-276.73 655.12,-276.73 655.12,-270.73 661.12,-264.73 667.12,-264.73 667.12,-264.73 791.88,-264.73 791.88,-264.73 797.88,-264.73 803.88,-270.73 803.88,-276.73 803.88,-276.73 803.88,-320.73 803.88,-320.73 803.88,-326.73 797.88,-332.73 791.88,-332.73"/>
<text xml:space="preserve" text-anchor="middle" x="729.5" y="-319.23" font-family="Helvetica,sans-Serif" font-size="10.00">memex_local (futuro)</text>
<text xml:space="preserve" text-anchor="middle" x="729.5" y="-307.23" font-family="Helvetica,sans-Serif" font-size="10.00">cumple rol Ingestor (ADR&#45;001)</text>
<text xml:space="preserve" text-anchor="middle" x="729.5" y="-295.23" font-family="Helvetica,sans-Serif" font-size="10.00">filtro pre&#45;ingest local</text>
<text xml:space="preserve" text-anchor="middle" x="729.5" y="-283.23" font-family="Helvetica,sans-Serif" font-size="10.00">POST /bridge/ingest</text>
<text xml:space="preserve" text-anchor="middle" x="729.5" y="-271.23" font-family="Helvetica,sans-Serif" font-size="10.00">Bearer &lt;token&gt;</text>
</g>
<!-- BRIDGE -->
<g id="node4" class="node">
<title>BRIDGE</title>
<path fill="#ffffff" stroke="#2d6cdf" stroke-width="2" d="M429.75,-742.73C429.75,-742.73 300.5,-742.73 300.5,-742.73 294.5,-742.73 288.5,-736.73 288.5,-730.73 288.5,-730.73 288.5,-686.73 288.5,-686.73 288.5,-680.73 294.5,-674.73 300.5,-674.73 300.5,-674.73 429.75,-674.73 429.75,-674.73 435.75,-674.73 441.75,-680.73 441.75,-686.73 441.75,-686.73 441.75,-730.73 441.75,-730.73 441.75,-736.73 435.75,-742.73 429.75,-742.73"/>
<text xml:space="preserve" text-anchor="middle" x="365.12" y="-729.23" font-family="Helvetica,sans-Serif" font-size="10.00">bridge.py &#160;(NUEVO)</text>
<text xml:space="preserve" text-anchor="middle" x="365.12" y="-717.23" font-family="Helvetica,sans-Serif" font-size="10.00">POST /bridge/ingest</text>
<text xml:space="preserve" text-anchor="middle" x="365.12" y="-705.23" font-family="Helvetica,sans-Serif" font-size="10.00"> recibe + valida shape</text>
<text xml:space="preserve" text-anchor="middle" x="365.12" y="-693.23" font-family="Helvetica,sans-Serif" font-size="10.00"> SourceRecord → insert_record</text>
<text xml:space="preserve" text-anchor="middle" x="365.12" y="-681.23" font-family="Helvetica,sans-Serif" font-size="10.00">→ {inserted, duplicates, errors}</text>
</g>
<!-- LOCAL&#45;&gt;BRIDGE -->
<g id="edge1" class="edge">
<title>LOCAL&#45;&gt;BRIDGE</title>
<path fill="none" stroke="#c97a00" stroke-width="1.6" d="M654.56,-331.39C641.44,-339.98 629.02,-350.38 619.75,-362.73 589.46,-403.07 622.32,-432.6 591.75,-472.73 556.41,-519.13 512.58,-490.95 477.75,-537.73 444.79,-582.01 482.25,-614.12 449.75,-658.73 447.96,-661.19 446.02,-663.54 443.94,-665.8"/>
<polygon fill="#c97a00" stroke="#c97a00" stroke-width="1.6" points="441.9,-662.9 437.11,-672.35 446.75,-667.96 441.9,-662.9"/>
<text xml:space="preserve" text-anchor="middle" x="534.75" y="-550.18" font-family="Helvetica,sans-Serif" font-size="9.00">HTTP POST</text>
<text xml:space="preserve" text-anchor="middle" x="534.75" y="-539.68" font-family="Helvetica,sans-Serif" font-size="9.00">+ Bearer</text>
</g>
<!-- APP -->
<g id="node2" class="node">
<title>APP</title>
<path fill="#dceeff" stroke="#2d6cdf" stroke-width="1.2" d="M143,-615.73C143,-615.73 30.25,-615.73 30.25,-615.73 24.25,-615.73 18.25,-609.73 18.25,-603.73 18.25,-603.73 18.25,-583.73 18.25,-583.73 18.25,-577.73 24.25,-571.73 30.25,-571.73 30.25,-571.73 143,-571.73 143,-571.73 149,-571.73 155,-577.73 155,-583.73 155,-583.73 155,-603.73 155,-603.73 155,-609.73 149,-615.73 143,-615.73"/>
<text xml:space="preserve" text-anchor="middle" x="86.62" y="-602.23" font-family="Helvetica,sans-Serif" font-size="10.00">api/app.py</text>
<text xml:space="preserve" text-anchor="middle" x="86.62" y="-590.23" font-family="Helvetica,sans-Serif" font-size="10.00">FastAPI()</text>
<text xml:space="preserve" text-anchor="middle" x="86.62" y="-578.23" font-family="Helvetica,sans-Serif" font-size="10.00">include_router(bridge.router)</text>
</g>
<!-- MW -->
<g id="node3" class="node">
<title>MW</title>
<path fill="#dceeff" stroke="#2d6cdf" stroke-width="1.2" d="M785.88,-818.73C785.88,-818.73 673.12,-818.73 673.12,-818.73 667.12,-818.73 661.12,-812.73 661.12,-806.73 661.12,-806.73 661.12,-794.73 661.12,-794.73 661.12,-788.73 667.12,-782.73 673.12,-782.73 673.12,-782.73 785.88,-782.73 785.88,-782.73 791.88,-782.73 797.88,-788.73 797.88,-794.73 797.88,-794.73 797.88,-806.73 797.88,-806.73 797.88,-812.73 791.88,-818.73 785.88,-818.73"/>
<text xml:space="preserve" text-anchor="middle" x="729.5" y="-803.23" font-family="Helvetica,sans-Serif" font-size="10.00">api/middleware</text>
<text xml:space="preserve" text-anchor="middle" x="729.5" y="-791.23" font-family="Helvetica,sans-Serif" font-size="10.00">RequestContextMiddleware</text>
</g>
<!-- APP&#45;&gt;MW -->
<g id="edge17" class="edge">
<title>APP&#45;&gt;MW</title>
<path fill="none" stroke="#555555" stroke-dasharray="1,5" d="M102.75,-616.02C131.72,-656.58 199.43,-741.5 280.5,-776.73 400.85,-829.03 556.82,-822.89 649.41,-812.58"/>
<polygon fill="#555555" stroke="#555555" points="649.62,-816.07 659.15,-811.44 648.81,-809.12 649.62,-816.07"/>
<text xml:space="preserve" text-anchor="middle" x="365.12" y="-817.75" font-family="Helvetica,sans-Serif" font-size="9.00">add_middleware</text>
</g>
<!-- APP&#45;&gt;BRIDGE -->
<g id="edge12" class="edge">
<title>APP&#45;&gt;BRIDGE</title>
<path fill="none" stroke="#555555" stroke-dasharray="1,5" d="M141.92,-616.32C180.43,-632.33 232.93,-654.17 277.23,-672.59"/>
<polygon fill="#555555" stroke="#555555" points="275.74,-675.76 286.32,-676.37 278.43,-669.3 275.74,-675.76"/>
<text xml:space="preserve" text-anchor="middle" x="222.88" y="-663.48" font-family="Helvetica,sans-Serif" font-size="9.00">include_router</text>
</g>
<!-- INGEST -->
<g id="node5" class="node">
<title>INGEST</title>
<path fill="#ffffff" stroke="#2d6cdf" stroke-width="1.2" d="M404.25,-642.73C404.25,-642.73 326,-642.73 326,-642.73 320,-642.73 314,-636.73 314,-630.73 314,-630.73 314,-610.73 314,-610.73 314,-604.73 320,-598.73 326,-598.73 326,-598.73 404.25,-598.73 404.25,-598.73 410.25,-598.73 416.25,-604.73 416.25,-610.73 416.25,-610.73 416.25,-630.73 416.25,-630.73 416.25,-636.73 410.25,-642.73 404.25,-642.73"/>
<text xml:space="preserve" text-anchor="middle" x="365.12" y="-629.23" font-family="Helvetica,sans-Serif" font-size="10.00">ingest.py</text>
<text xml:space="preserve" text-anchor="middle" x="365.12" y="-617.23" font-family="Helvetica,sans-Serif" font-size="10.00">POST /ingest</text>
<text xml:space="preserve" text-anchor="middle" x="365.12" y="-605.23" font-family="Helvetica,sans-Serif" font-size="10.00">POST /ingest/batch</text>
</g>
<!-- APP&#45;&gt;INGEST -->
<g id="edge13" class="edge">
<title>APP&#45;&gt;INGEST</title>
<path fill="none" stroke="#555555" stroke-dasharray="1,5" d="M155.26,-600.34C200.17,-604.72 258.67,-610.44 302.33,-614.7"/>
<polygon fill="#555555" stroke="#555555" points="301.86,-618.17 312.15,-615.66 302.54,-611.2 301.86,-618.17"/>
</g>
<!-- INBOX -->
<g id="node6" class="node">
<title>INBOX</title>
<path fill="#ffffff" stroke="#2d6cdf" stroke-width="1.2" d="M399.75,-430.73C399.75,-430.73 330.5,-430.73 330.5,-430.73 324.5,-430.73 318.5,-424.73 318.5,-418.73 318.5,-418.73 318.5,-398.73 318.5,-398.73 318.5,-392.73 324.5,-386.73 330.5,-386.73 330.5,-386.73 399.75,-386.73 399.75,-386.73 405.75,-386.73 411.75,-392.73 411.75,-398.73 411.75,-398.73 411.75,-418.73 411.75,-418.73 411.75,-424.73 405.75,-430.73 399.75,-430.73"/>
<text xml:space="preserve" text-anchor="middle" x="365.12" y="-417.23" font-family="Helvetica,sans-Serif" font-size="10.00">inbox.py</text>
<text xml:space="preserve" text-anchor="middle" x="365.12" y="-405.23" font-family="Helvetica,sans-Serif" font-size="10.00">GET &#160;/inbox</text>
<text xml:space="preserve" text-anchor="middle" x="365.12" y="-393.23" font-family="Helvetica,sans-Serif" font-size="10.00">GET &#160;/inbox/stats</text>
</g>
<!-- APP&#45;&gt;INBOX -->
<g id="edge14" class="edge">
<title>APP&#45;&gt;INBOX</title>
<path fill="none" stroke="#555555" stroke-dasharray="1,5" d="M113.12,-571.3C148.82,-540.61 216.54,-484.97 280.5,-446.73 289.05,-441.62 298.41,-436.74 307.67,-432.28"/>
<polygon fill="#555555" stroke="#555555" points="309.09,-435.48 316.67,-428.08 306.13,-429.14 309.09,-435.48"/>
</g>
<!-- SRCS -->
<g id="node7" class="node">
<title>SRCS</title>
<path fill="#ffffff" stroke="#2d6cdf" stroke-width="1.2" d="M396.38,-498.73C396.38,-498.73 333.88,-498.73 333.88,-498.73 327.88,-498.73 321.88,-492.73 321.88,-486.73 321.88,-486.73 321.88,-474.73 321.88,-474.73 321.88,-468.73 327.88,-462.73 333.88,-462.73 333.88,-462.73 396.38,-462.73 396.38,-462.73 402.38,-462.73 408.38,-468.73 408.38,-474.73 408.38,-474.73 408.38,-486.73 408.38,-486.73 408.38,-492.73 402.38,-498.73 396.38,-498.73"/>
<text xml:space="preserve" text-anchor="middle" x="365.12" y="-483.23" font-family="Helvetica,sans-Serif" font-size="10.00">sources.py</text>
<text xml:space="preserve" text-anchor="middle" x="365.12" y="-471.23" font-family="Helvetica,sans-Serif" font-size="10.00">CRUD /sources</text>
</g>
<!-- APP&#45;&gt;SRCS -->
<g id="edge15" class="edge">
<title>APP&#45;&gt;SRCS</title>
<path fill="none" stroke="#555555" stroke-dasharray="1,5" d="M142.48,-571.22C181.07,-555.39 233.93,-533.74 280.5,-514.73 290.41,-510.69 300.98,-506.38 311.16,-502.24"/>
<polygon fill="#555555" stroke="#555555" points="312.23,-505.59 320.17,-498.58 309.59,-499.1 312.23,-505.59"/>
</g>
<!-- HEAL -->
<g id="node8" class="node">
<title>HEAL</title>
<path fill="#ffffff" stroke="#2d6cdf" stroke-width="1.2" d="M391.5,-566.73C391.5,-566.73 338.75,-566.73 338.75,-566.73 332.75,-566.73 326.75,-560.73 326.75,-554.73 326.75,-554.73 326.75,-542.73 326.75,-542.73 326.75,-536.73 332.75,-530.73 338.75,-530.73 338.75,-530.73 391.5,-530.73 391.5,-530.73 397.5,-530.73 403.5,-536.73 403.5,-542.73 403.5,-542.73 403.5,-554.73 403.5,-554.73 403.5,-560.73 397.5,-566.73 391.5,-566.73"/>
<text xml:space="preserve" text-anchor="middle" x="365.12" y="-551.23" font-family="Helvetica,sans-Serif" font-size="10.00">health.py</text>
<text xml:space="preserve" text-anchor="middle" x="365.12" y="-539.23" font-family="Helvetica,sans-Serif" font-size="10.00">GET &#160;/healthz</text>
</g>
<!-- APP&#45;&gt;HEAL -->
<g id="edge16" class="edge">
<title>APP&#45;&gt;HEAL</title>
<path fill="none" stroke="#555555" stroke-dasharray="1,5" d="M155.26,-582.72C204.83,-574.66 270.94,-563.9 315.4,-556.66"/>
<polygon fill="#555555" stroke="#555555" points="315.69,-560.16 324.99,-555.1 314.56,-553.25 315.69,-560.16"/>
</g>
<!-- BRIDGE&#45;&gt;LOCAL -->
<g id="edge11" class="edge">
<title>BRIDGE&#45;&gt;LOCAL</title>
<path fill="none" stroke="#c97a00" stroke-dasharray="5,2" d="M433.69,-674.01C439.56,-669.37 445.04,-664.28 449.75,-658.73 471.7,-632.87 451.93,-609.73 477.75,-587.73 517.24,-554.1 556.51,-600.79 591.75,-562.73 652.73,-496.88 569.89,-437.37 619.75,-362.73 626.51,-352.62 635.44,-343.89 645.3,-336.41"/>
<polygon fill="#c97a00" stroke="#c97a00" points="647.17,-339.37 653.34,-330.76 643.14,-333.64 647.17,-339.37"/>
<text xml:space="preserve" text-anchor="middle" x="534.75" y="-600.18" font-family="Helvetica,sans-Serif" font-size="9.00">200 OK</text>
<text xml:space="preserve" text-anchor="middle" x="534.75" y="-589.68" font-family="Helvetica,sans-Serif" font-size="9.00">{inserted, duplicates, errors}</text>
</g>
<!-- BRIDGE&#45;&gt;MW -->
<g id="edge2" class="edge">
<title>BRIDGE&#45;&gt;MW</title>
<path fill="none" stroke="#555555" stroke-dasharray="1,5" d="M442.75,-733.65C454.43,-737.19 466.38,-740.66 477.75,-743.73 534.85,-759.15 600,-773.87 649.58,-784.49"/>
<polygon fill="#555555" stroke="#555555" points="648.57,-787.86 659.08,-786.52 650.03,-781.01 648.57,-787.86"/>
<text xml:space="preserve" text-anchor="middle" x="534.75" y="-772.68" font-family="Helvetica,sans-Serif" font-size="9.00">passes through</text>
</g>
<!-- AUTH -->
<g id="node9" class="node">
<title>AUTH</title>
<path fill="#ffffff" stroke="#2d6cdf" stroke-width="1.2" d="M766.38,-740.73C766.38,-740.73 692.62,-740.73 692.62,-740.73 686.62,-740.73 680.62,-734.73 680.62,-728.73 680.62,-728.73 680.62,-708.73 680.62,-708.73 680.62,-702.73 686.62,-696.73 692.62,-696.73 692.62,-696.73 766.38,-696.73 766.38,-696.73 772.38,-696.73 778.38,-702.73 778.38,-708.73 778.38,-708.73 778.38,-728.73 778.38,-728.73 778.38,-734.73 772.38,-740.73 766.38,-740.73"/>
<text xml:space="preserve" text-anchor="middle" x="729.5" y="-727.23" font-family="Helvetica,sans-Serif" font-size="10.00">api/auth.py</text>
<text xml:space="preserve" text-anchor="middle" x="729.5" y="-715.23" font-family="Helvetica,sans-Serif" font-size="10.00">current_user_id</text>
<text xml:space="preserve" text-anchor="middle" x="729.5" y="-703.23" font-family="Helvetica,sans-Serif" font-size="10.00">(Bearer → user_id)</text>
</g>
<!-- BRIDGE&#45;&gt;AUTH -->
<g id="edge3" class="edge">
<title>BRIDGE&#45;&gt;AUTH</title>
<path fill="none" stroke="#555555" d="M442.53,-710.84C510.07,-712.71 607.21,-715.39 669.08,-717.09"/>
<polygon fill="#555555" stroke="#555555" points="668.6,-720.58 678.69,-717.36 668.79,-713.58 668.6,-720.58"/>
<text xml:space="preserve" text-anchor="middle" x="534.75" y="-727.37" font-family="Helvetica,sans-Serif" font-size="9.00">Depends</text>
<text xml:space="preserve" text-anchor="middle" x="534.75" y="-716.87" font-family="Helvetica,sans-Serif" font-size="9.00">→ user_id</text>
</g>
<!-- SCH -->
<g id="node10" class="node">
<title>SCH</title>
<path fill="#ffffff" stroke="#2d6cdf" stroke-width="1.2" d="M773.88,-664.73C773.88,-664.73 685.12,-664.73 685.12,-664.73 679.12,-664.73 673.12,-658.73 673.12,-652.73 673.12,-652.73 673.12,-620.73 673.12,-620.73 673.12,-614.73 679.12,-608.73 685.12,-608.73 685.12,-608.73 773.88,-608.73 773.88,-608.73 779.88,-608.73 785.88,-614.73 785.88,-620.73 785.88,-620.73 785.88,-652.73 785.88,-652.73 785.88,-658.73 779.88,-664.73 773.88,-664.73"/>
<text xml:space="preserve" text-anchor="middle" x="729.5" y="-651.23" font-family="Helvetica,sans-Serif" font-size="10.00">api/schemas.py</text>
<text xml:space="preserve" text-anchor="middle" x="729.5" y="-639.23" font-family="Helvetica,sans-Serif" font-size="10.00">IngestRequest</text>
<text xml:space="preserve" text-anchor="middle" x="729.5" y="-627.23" font-family="Helvetica,sans-Serif" font-size="10.00">IngestBatchRequest</text>
<text xml:space="preserve" text-anchor="middle" x="729.5" y="-615.23" font-family="Helvetica,sans-Serif" font-size="10.00">IngestBatchResponse</text>
</g>
<!-- BRIDGE&#45;&gt;SCH -->
<g id="edge4" class="edge">
<title>BRIDGE&#45;&gt;SCH</title>
<path fill="none" stroke="#555555" d="M442.53,-693.55C507.34,-680.68 599.38,-662.39 661.39,-650.07"/>
<polygon fill="#555555" stroke="#555555" points="661.99,-653.52 671.12,-648.13 660.63,-646.65 661.99,-653.52"/>
<text xml:space="preserve" text-anchor="middle" x="534.75" y="-687.39" font-family="Helvetica,sans-Serif" font-size="9.00">parse / validate</text>
</g>
<!-- SR -->
<g id="node11" class="node">
<title>SR</title>
<path fill="#ffffff" stroke="#7a4ddb" stroke-width="1.2" d="M804.25,-218.73C804.25,-218.73 654.75,-218.73 654.75,-218.73 648.75,-218.73 642.75,-212.73 642.75,-206.73 642.75,-206.73 642.75,-186.73 642.75,-186.73 642.75,-180.73 648.75,-174.73 654.75,-174.73 654.75,-174.73 804.25,-174.73 804.25,-174.73 810.25,-174.73 816.25,-180.73 816.25,-186.73 816.25,-186.73 816.25,-206.73 816.25,-206.73 816.25,-212.73 810.25,-218.73 804.25,-218.73"/>
<text xml:space="preserve" text-anchor="middle" x="729.5" y="-205.23" font-family="Helvetica,sans-Serif" font-size="10.00">core.source.SourceRecord</text>
<text xml:space="preserve" text-anchor="middle" x="729.5" y="-193.23" font-family="Helvetica,sans-Serif" font-size="10.00">(dataclass: external_id,</text>
<text xml:space="preserve" text-anchor="middle" x="729.5" y="-181.23" font-family="Helvetica,sans-Serif" font-size="10.00">occurred_at, payload, dedupe_keys)</text>
</g>
<!-- BRIDGE&#45;&gt;SR -->
<g id="edge5" class="edge">
<title>BRIDGE&#45;&gt;SR</title>
<path fill="none" stroke="#555555" d="M436.3,-674.07C441.41,-669.48 446.02,-664.38 449.75,-658.73 500.33,-582.2 430.34,-532.77 477.75,-454.23 509.94,-400.91 557.3,-424.62 591.75,-372.73 623,-325.66 584.51,-292.9 619.75,-248.73 627.34,-239.21 637.11,-231.34 647.65,-224.84"/>
<polygon fill="#555555" stroke="#555555" points="649.22,-227.98 656.21,-220.01 645.78,-221.88 649.22,-227.98"/>
<text xml:space="preserve" text-anchor="middle" x="534.75" y="-456.18" font-family="Helvetica,sans-Serif" font-size="9.00">construct</text>
</g>
<!-- INSERT -->
<g id="node12" class="node">
<title>INSERT</title>
<path fill="#ffffff" stroke="#7a4ddb" stroke-width="1.2" d="M819.25,-142.73C819.25,-142.73 639.75,-142.73 639.75,-142.73 633.75,-142.73 627.75,-136.73 627.75,-130.73 627.75,-130.73 627.75,-98.73 627.75,-98.73 627.75,-92.73 633.75,-86.73 639.75,-86.73 639.75,-86.73 819.25,-86.73 819.25,-86.73 825.25,-86.73 831.25,-92.73 831.25,-98.73 831.25,-98.73 831.25,-130.73 831.25,-130.73 831.25,-136.73 825.25,-142.73 819.25,-142.73"/>
<text xml:space="preserve" text-anchor="middle" x="729.5" y="-129.23" font-family="Helvetica,sans-Serif" font-size="10.00">core.inbox.insert_record</text>
<text xml:space="preserve" text-anchor="middle" x="729.5" y="-117.23" font-family="Helvetica,sans-Serif" font-size="10.00">valida user_id == owner(source_id)</text>
<text xml:space="preserve" text-anchor="middle" x="729.5" y="-105.23" font-family="Helvetica,sans-Serif" font-size="10.00">INSERT ... ON CONFLICT DO NOTHING</text>
<text xml:space="preserve" text-anchor="middle" x="729.5" y="-93.23" font-family="Helvetica,sans-Serif" font-size="10.00">escribe dedupe_keys</text>
</g>
<!-- BRIDGE&#45;&gt;INSERT -->
<g id="edge7" class="edge">
<title>BRIDGE&#45;&gt;INSERT</title>
<path fill="none" stroke="#555555" d="M437.05,-673.96C441.93,-669.41 446.28,-664.35 449.75,-658.73 493.77,-587.44 440.28,-357.67 477.75,-282.73 510.03,-218.18 580.15,-174.46 638.06,-147.84"/>
<polygon fill="#555555" stroke="#555555" points="639.27,-151.13 646.97,-143.85 636.41,-144.74 639.27,-151.13"/>
<text xml:space="preserve" text-anchor="middle" x="534.75" y="-295.18" font-family="Helvetica,sans-Serif" font-size="9.00">insert_record(conn,</text>
<text xml:space="preserve" text-anchor="middle" x="534.75" y="-284.68" font-family="Helvetica,sans-Serif" font-size="9.00"> &#160;user_id, source_id, record)</text>
</g>
<!-- CONN -->
<g id="node13" class="node">
<title>CONN</title>
<path fill="#ffffff" stroke="#2f8f2f" stroke-width="1.2" d="M1028,-93.73C1028,-93.73 969.25,-93.73 969.25,-93.73 963.25,-93.73 957.25,-87.73 957.25,-81.73 957.25,-81.73 957.25,-61.73 957.25,-61.73 957.25,-55.73 963.25,-49.73 969.25,-49.73 969.25,-49.73 1028,-49.73 1028,-49.73 1034,-49.73 1040,-55.73 1040,-61.73 1040,-61.73 1040,-81.73 1040,-81.73 1040,-87.73 1034,-93.73 1028,-93.73"/>
<text xml:space="preserve" text-anchor="middle" x="998.62" y="-80.23" font-family="Helvetica,sans-Serif" font-size="10.00">db.connection()</text>
<text xml:space="preserve" text-anchor="middle" x="998.62" y="-68.23" font-family="Helvetica,sans-Serif" font-size="10.00">(context mgr,</text>
<text xml:space="preserve" text-anchor="middle" x="998.62" y="-56.23" font-family="Helvetica,sans-Serif" font-size="10.00">SQLAlchemy)</text>
</g>
<!-- BRIDGE&#45;&gt;CONN -->
<g id="edge6" class="edge">
<title>BRIDGE&#45;&gt;CONN</title>
<path fill="none" stroke="#555555" d="M437.21,-674.06C442.06,-669.49 446.36,-664.39 449.75,-658.73 483.04,-603.2 433.54,-124.03 477.75,-76.73 598.88,52.88 840.45,-13.58 946.13,-51.44"/>
<polygon fill="#555555" stroke="#555555" points="944.81,-54.69 955.4,-54.83 947.21,-48.11 944.81,-54.69"/>
<text xml:space="preserve" text-anchor="middle" x="729.5" y="-20.19" font-family="Helvetica,sans-Serif" font-size="9.00">open conn</text>
</g>
<!-- INGEST&#45;&gt;INSERT -->
<g id="edge18" class="edge">
<title>INGEST&#45;&gt;INSERT</title>
<path fill="none" stroke="#7a4ddb" stroke-dasharray="5,2" d="M416.63,-608.06C429.43,-602.4 441.8,-594.3 449.75,-582.73 508.03,-497.98 403.7,-192.12 477.75,-120.73 513.6,-86.18 567.45,-81.29 616.06,-86.47"/>
<polygon fill="#7a4ddb" stroke="#7a4ddb" points="615.46,-89.92 625.82,-87.67 616.32,-82.97 615.46,-89.92"/>
<text xml:space="preserve" text-anchor="middle" x="534.75" y="-133.18" font-family="Helvetica,sans-Serif" font-size="9.00">(idéntica</text>
<text xml:space="preserve" text-anchor="middle" x="534.75" y="-122.68" font-family="Helvetica,sans-Serif" font-size="9.00">llamada)</text>
</g>
<!-- INSERT&#45;&gt;BRIDGE -->
<g id="edge10" class="edge">
<title>INSERT&#45;&gt;BRIDGE</title>
<path fill="none" stroke="#555555" stroke-dasharray="5,2" d="M636.64,-143.26C630.34,-147.7 624.59,-152.82 619.75,-158.73 577.07,-210.87 636.45,-257.31 591.75,-307.73 556.5,-347.49 511.03,-302.31 477.75,-343.73 433.74,-398.52 487.1,-599.2 449.75,-658.73 448.22,-661.18 446.52,-663.52 444.68,-665.76"/>
<polygon fill="#555555" stroke="#555555" points="442.34,-663.14 438,-672.81 447.42,-667.95 442.34,-663.14"/>
<text xml:space="preserve" text-anchor="middle" x="534.75" y="-356.18" font-family="Helvetica,sans-Serif" font-size="9.00">InsertResult</text>
<text xml:space="preserve" text-anchor="middle" x="534.75" y="-345.68" font-family="Helvetica,sans-Serif" font-size="9.00">(inserted/duplicate)</text>
</g>
<!-- INSERT&#45;&gt;CONN -->
<g id="edge8" class="edge">
<title>INSERT&#45;&gt;CONN</title>
<path fill="none" stroke="#555555" d="M831.49,-98.48C870.48,-92.2 913.41,-85.29 945.86,-80.07"/>
<polygon fill="#555555" stroke="#555555" points="946.07,-83.58 955.39,-78.53 944.96,-76.67 946.07,-83.58"/>
<text xml:space="preserve" text-anchor="middle" x="894.25" y="-93.89" font-family="Helvetica,sans-Serif" font-size="9.00">SQL via conn</text>
</g>
<!-- DB -->
<g id="node14" class="node">
<title>DB</title>
<path fill="#ffffff" stroke="#2f8f2f" stroke-width="1.2" d="M1360.5,-109.98C1360.5,-114.67 1316.74,-118.48 1262.88,-118.48 1209.01,-118.48 1165.25,-114.67 1165.25,-109.98 1165.25,-109.98 1165.25,-33.48 1165.25,-33.48 1165.25,-28.79 1209.01,-24.98 1262.88,-24.98 1316.74,-24.98 1360.5,-28.79 1360.5,-33.48 1360.5,-33.48 1360.5,-109.98 1360.5,-109.98"/>
<path fill="none" stroke="#2f8f2f" stroke-width="1.2" d="M1360.5,-109.98C1360.5,-105.29 1316.74,-101.48 1262.88,-101.48 1209.01,-101.48 1165.25,-105.29 1165.25,-109.98"/>
<text xml:space="preserve" text-anchor="middle" x="1262.88" y="-92.23" font-family="Helvetica,sans-Serif" font-size="10.00">Postgres</text>
<text xml:space="preserve" text-anchor="middle" x="1262.88" y="-80.23" font-family="Helvetica,sans-Serif" font-size="10.00"> &#160;sources</text>
<text xml:space="preserve" text-anchor="middle" x="1262.88" y="-68.23" font-family="Helvetica,sans-Serif" font-size="10.00"> &#160;inbox &#160;(UNIQUE source_id+external_id)</text>
<text xml:space="preserve" text-anchor="middle" x="1262.88" y="-56.23" font-family="Helvetica,sans-Serif" font-size="10.00"> &#160;inbox_dedupe_keys</text>
<text xml:space="preserve" text-anchor="middle" x="1262.88" y="-44.23" font-family="Helvetica,sans-Serif" font-size="10.00"> &#160;users</text>
</g>
<!-- CONN&#45;&gt;DB -->
<g id="edge9" class="edge">
<title>CONN&#45;&gt;DB</title>
<path fill="none" stroke="#555555" d="M1040.31,-71.73C1070.56,-71.73 1113.33,-71.73 1153.23,-71.73"/>
<polygon fill="#555555" stroke="#555555" points="1153.16,-75.23 1163.16,-71.73 1153.16,-68.23 1153.16,-75.23"/>
<text xml:space="preserve" text-anchor="middle" x="1102.62" y="-73.68" font-family="Helvetica,sans-Serif" font-size="9.00">SQLAlchemy</text>
</g>
<!-- OUT -->
<g id="node15" class="node">
<title>OUT</title>
<path fill="#f6f6f6" stroke="#999999" stroke-width="1.2" stroke-dasharray="5,2" d="M145.25,-936.73C145.25,-936.73 28,-936.73 28,-936.73 22,-936.73 16,-930.73 16,-924.73 16,-924.73 16,-880.73 16,-880.73 16,-874.73 22,-868.73 28,-868.73 28,-868.73 145.25,-868.73 145.25,-868.73 151.25,-868.73 157.25,-874.73 157.25,-880.73 157.25,-880.73 157.25,-924.73 157.25,-924.73 157.25,-930.73 151.25,-936.73 145.25,-936.73"/>
<text xml:space="preserve" text-anchor="middle" x="86.62" y="-923.23" font-family="Helvetica,sans-Serif" font-size="10.00">filtros server&#45;side</text>
<text xml:space="preserve" text-anchor="middle" x="86.62" y="-911.23" font-family="Helvetica,sans-Serif" font-size="10.00">clasificación</text>
<text xml:space="preserve" text-anchor="middle" x="86.62" y="-899.23" font-family="Helvetica,sans-Serif" font-size="10.00">feedback al cliente</text>
<text xml:space="preserve" text-anchor="middle" x="86.62" y="-887.23" font-family="Helvetica,sans-Serif" font-size="10.00">(esos viven en el Ingestor</text>
<text xml:space="preserve" text-anchor="middle" x="86.62" y="-875.23" font-family="Helvetica,sans-Serif" font-size="10.00">lado PC, o en futuros ADRs)</text>
</g>
</g>
</svg>
