<?xml version="1.0" encoding="UTF-8" standalone="no"?>
<!DOCTYPE svg PUBLIC "-//W3C//DTD SVG 1.1//EN"
 "http://www.w3.org/Graphics/SVG/1.1/DTD/svg11.dtd">
<!-- Generated by graphviz version 14.1.2 (20260124.0452)
 -->
<!-- Title: ingestors Pages: 1 -->
<svg width="2235pt" height="630pt"
 viewBox="0.00 0.00 2235.00 630.00" xmlns="http://www.w3.org/2000/svg" xmlns:xlink="http://www.w3.org/1999/xlink">
<g id="graph0" class="graph" transform="scale(1 1) rotate(0) translate(4 626.1)">
<title>ingestors</title>
<polygon fill="white" stroke="none" points="-4,4 -4,-626.1 2231.38,-626.1 2231.38,4 -4,4"/>
<g id="clust1" class="cluster">
<title>cluster_core</title>
<path fill="#f6f1ff" stroke="#7a4ddb" d="M1655.5,-206.1C1655.5,-206.1 1801.25,-206.1 1801.25,-206.1 1807.25,-206.1 1813.25,-212.1 1813.25,-218.1 1813.25,-218.1 1813.25,-418.1 1813.25,-418.1 1813.25,-424.1 1807.25,-430.1 1801.25,-430.1 1801.25,-430.1 1655.5,-430.1 1655.5,-430.1 1649.5,-430.1 1643.5,-424.1 1643.5,-418.1 1643.5,-418.1 1643.5,-218.1 1643.5,-218.1 1643.5,-212.1 1649.5,-206.1 1655.5,-206.1"/>
<text xml:space="preserve" text-anchor="middle" x="1728.38" y="-415.65" font-family="Helvetica,sans-Serif" font-size="11.00" fill="#4a2da0">memex.core &#160;(contratos, sin I/O)</text>
</g>
<g id="clust2" class="cluster">
<title>cluster_ing</title>
<path fill="#eef7ff" stroke="#2d6cdf" d="M1118,-41.1C1118,-41.1 1499.75,-41.1 1499.75,-41.1 1505.75,-41.1 1511.75,-47.1 1511.75,-53.1 1511.75,-53.1 1511.75,-279.1 1511.75,-279.1 1511.75,-285.1 1505.75,-291.1 1499.75,-291.1 1499.75,-291.1 1118,-291.1 1118,-291.1 1112,-291.1 1106,-285.1 1106,-279.1 1106,-279.1 1106,-53.1 1106,-53.1 1106,-47.1 1112,-41.1 1118,-41.1"/>
<text xml:space="preserve" text-anchor="middle" x="1308.88" y="-276.65" font-family="Helvetica,sans-Serif" font-size="11.00" fill="#1d4f9e">memex.ingestors &#160;&#160;(aislado — ADR&#45;001)</text>
</g>
<g id="clust3" class="cluster">
<title>cluster_imap</title>
<path fill="#dceeff" stroke="#2d6cdf" d="M1126,-49.1C1126,-49.1 1239.5,-49.1 1239.5,-49.1 1245.5,-49.1 1251.5,-55.1 1251.5,-61.1 1251.5,-61.1 1251.5,-249.1 1251.5,-249.1 1251.5,-255.1 1245.5,-261.1 1239.5,-261.1 1239.5,-261.1 1126,-261.1 1126,-261.1 1120,-261.1 1114,-255.1 1114,-249.1 1114,-249.1 1114,-61.1 1114,-61.1 1114,-55.1 1120,-49.1 1126,-49.1"/>
<text xml:space="preserve" text-anchor="middle" x="1182.75" y="-246.65" font-family="Helvetica,sans-Serif" font-size="11.00" fill="#1d4f9e">imap/ &#160;&#160;(Source concreto)</text>
</g>
<g id="clust4" class="cluster">
<title>cluster_local</title>
<path fill="#fff4e5" stroke="#c97a00" d="M20,-299.1C20,-299.1 1243.62,-299.1 1243.62,-299.1 1249.62,-299.1 1255.62,-305.1 1255.62,-311.1 1255.62,-311.1 1255.62,-602.1 1255.62,-602.1 1255.62,-608.1 1249.62,-614.1 1243.62,-614.1 1243.62,-614.1 20,-614.1 20,-614.1 14,-614.1 8,-608.1 8,-602.1 8,-602.1 8,-311.1 8,-311.1 8,-305.1 14,-299.1 20,-299.1"/>
<text xml:space="preserve" text-anchor="middle" x="631.81" y="-599.65" font-family="Helvetica,sans-Serif" font-size="11.00" fill="#8a5400">memex_local &#160;&#160;(cliente local, PC del usuario)</text>
</g>
<g id="clust5" class="cluster">
<title>cluster_plugins</title>
<path fill="white" stroke="#c97a00" stroke-dasharray="5,2" d="M802.75,-368.1C802.75,-368.1 955.25,-368.1 955.25,-368.1 961.25,-368.1 967.25,-374.1 967.25,-380.1 967.25,-380.1 967.25,-495.1 967.25,-495.1 967.25,-501.1 961.25,-507.1 955.25,-507.1 955.25,-507.1 802.75,-507.1 802.75,-507.1 796.75,-507.1 790.75,-501.1 790.75,-495.1 790.75,-495.1 790.75,-380.1 790.75,-380.1 790.75,-374.1 796.75,-368.1 802.75,-368.1"/>
<text xml:space="preserve" text-anchor="middle" x="879" y="-492.65" font-family="Helvetica,sans-Serif" font-size="11.00" fill="#8a5400">~/.memex&#45;local/plugins/ &#160;(drop&#45;in)</text>
</g>
<g id="clust6" class="cluster">
<title>cluster_api</title>
<path fill="#ecffe8" stroke="#2f8f2f" d="M1662.75,-43.1C1662.75,-43.1 2207.38,-43.1 2207.38,-43.1 2213.38,-43.1 2219.38,-49.1 2219.38,-55.1 2219.38,-55.1 2219.38,-186.1 2219.38,-186.1 2219.38,-192.1 2213.38,-198.1 2207.38,-198.1 2207.38,-198.1 1662.75,-198.1 1662.75,-198.1 1656.75,-198.1 1650.75,-192.1 1650.75,-186.1 1650.75,-186.1 1650.75,-55.1 1650.75,-55.1 1650.75,-49.1 1656.75,-43.1 1662.75,-43.1"/>
<text xml:space="preserve" text-anchor="middle" x="1935.06" y="-183.65" font-family="Helvetica,sans-Serif" font-size="11.00" fill="#1f6b1f">memex API (FastAPI, en VPS)</text>
</g>
<!-- SRC -->
<g id="node1" class="node">
<title>SRC</title>
<path fill="#ece1ff" stroke="#7a4ddb" stroke-width="1.2" stroke-dasharray="5,2" d="M1783.88,-335.1C1783.88,-335.1 1671.88,-335.1 1671.88,-335.1 1665.88,-335.1 1659.88,-329.1 1659.88,-323.1 1659.88,-323.1 1659.88,-311.1 1659.88,-311.1 1659.88,-305.1 1665.88,-299.1 1671.88,-299.1 1671.88,-299.1 1783.88,-299.1 1783.88,-299.1 1789.88,-299.1 1795.88,-305.1 1795.88,-311.1 1795.88,-311.1 1795.88,-323.1 1795.88,-323.1 1795.88,-329.1 1789.88,-335.1 1783.88,-335.1"/>
<text xml:space="preserve" text-anchor="middle" x="1727.88" y="-319.6" font-family="Helvetica,sans-Serif" font-size="10.00">Source (Protocol)</text>
<text xml:space="preserve" text-anchor="middle" x="1727.88" y="-307.6" font-family="Helvetica,sans-Serif" font-size="10.00">fetch / advance_checkpoint</text>
</g>
<!-- SNK -->
<g id="node2" class="node">
<title>SNK</title>
<path fill="#ece1ff" stroke="#7a4ddb" stroke-width="1.2" stroke-dasharray="5,2" d="M1772.25,-270.1C1772.25,-270.1 1683.5,-270.1 1683.5,-270.1 1677.5,-270.1 1671.5,-264.1 1671.5,-258.1 1671.5,-258.1 1671.5,-226.1 1671.5,-226.1 1671.5,-220.1 1677.5,-214.1 1683.5,-214.1 1683.5,-214.1 1772.25,-214.1 1772.25,-214.1 1778.25,-214.1 1784.25,-220.1 1784.25,-226.1 1784.25,-226.1 1784.25,-258.1 1784.25,-258.1 1784.25,-264.1 1778.25,-270.1 1772.25,-270.1"/>
<text xml:space="preserve" text-anchor="middle" x="1727.88" y="-256.6" font-family="Helvetica,sans-Serif" font-size="10.00">MemexSink (Protocol)</text>
<text xml:space="preserve" text-anchor="middle" x="1727.88" y="-244.6" font-family="Helvetica,sans-Serif" font-size="10.00">get/put_checkpoint</text>
<text xml:space="preserve" text-anchor="middle" x="1727.88" y="-232.6" font-family="Helvetica,sans-Serif" font-size="10.00">post_ingest_batch</text>
<text xml:space="preserve" text-anchor="middle" x="1727.88" y="-220.6" font-family="Helvetica,sans-Serif" font-size="10.00">get_sources_by_type</text>
</g>
<!-- REC -->
<g id="node3" class="node">
<title>REC</title>
<path fill="#ffffff" stroke="#7a4ddb" stroke-width="1.2" d="M1755,-400.1C1755,-400.1 1700.75,-400.1 1700.75,-400.1 1694.75,-400.1 1688.75,-394.1 1688.75,-388.1 1688.75,-388.1 1688.75,-376.1 1688.75,-376.1 1688.75,-370.1 1694.75,-364.1 1700.75,-364.1 1700.75,-364.1 1755,-364.1 1755,-364.1 1761,-364.1 1767,-370.1 1767,-376.1 1767,-376.1 1767,-388.1 1767,-388.1 1767,-394.1 1761,-400.1 1755,-400.1"/>
<text xml:space="preserve" text-anchor="middle" x="1727.88" y="-378.6" font-family="Helvetica,sans-Serif" font-size="10.00">SourceRecord</text>
</g>
<!-- RUNNER -->
<g id="node4" class="node">
<title>RUNNER</title>
<path fill="#ffffff" stroke="#2d6cdf" stroke-width="1.2" d="M1491.75,-215.1C1491.75,-215.1 1382.75,-215.1 1382.75,-215.1 1376.75,-215.1 1370.75,-209.1 1370.75,-203.1 1370.75,-203.1 1370.75,-191.1 1370.75,-191.1 1370.75,-185.1 1376.75,-179.1 1382.75,-179.1 1382.75,-179.1 1491.75,-179.1 1491.75,-179.1 1497.75,-179.1 1503.75,-185.1 1503.75,-191.1 1503.75,-191.1 1503.75,-203.1 1503.75,-203.1 1503.75,-209.1 1497.75,-215.1 1491.75,-215.1"/>
<text xml:space="preserve" text-anchor="middle" x="1437.25" y="-199.6" font-family="Helvetica,sans-Serif" font-size="10.00">runner.run_ingestor</text>
<text xml:space="preserve" text-anchor="middle" x="1437.25" y="-187.6" font-family="Helvetica,sans-Serif" font-size="10.00">chunk + checkpoint + retry</text>
</g>
<!-- RUNNER&#45;&gt;SRC -->
<g id="edge17" class="edge">
<title>RUNNER&#45;&gt;SRC</title>
<path fill="none" stroke="#555555" d="M1477.85,-215.69C1495.75,-223.97 1517.23,-233.72 1536.75,-242.1 1583.75,-262.29 1595.9,-266.38 1643.5,-285.1 1651.33,-288.18 1659.58,-291.39 1667.72,-294.54"/>
<polygon fill="#555555" stroke="#555555" points="1666.32,-297.75 1676.91,-298.08 1668.84,-291.22 1666.32,-297.75"/>
<text xml:space="preserve" text-anchor="middle" x="1577.62" y="-276.5" font-family="Helvetica,sans-Serif" font-size="9.00">fetch</text>
</g>
<!-- RUNNER&#45;&gt;SNK -->
<g id="edge18" class="edge">
<title>RUNNER&#45;&gt;SNK</title>
<path fill="none" stroke="#555555" d="M1504.1,-207.37C1550.68,-214.63 1612.91,-224.34 1659.76,-231.64"/>
<polygon fill="#555555" stroke="#555555" points="1659.1,-235.08 1669.52,-233.16 1660.18,-228.16 1659.1,-235.08"/>
<text xml:space="preserve" text-anchor="middle" x="1577.62" y="-226.91" font-family="Helvetica,sans-Serif" font-size="9.00">post + checkpoint</text>
</g>
<!-- HTTPC -->
<g id="node5" class="node">
<title>HTTPC</title>
<path fill="#ffffff" stroke="#2d6cdf" stroke-width="1.2" d="M1486.12,-105.1C1486.12,-105.1 1388.38,-105.1 1388.38,-105.1 1382.38,-105.1 1376.38,-99.1 1376.38,-93.1 1376.38,-93.1 1376.38,-61.1 1376.38,-61.1 1376.38,-55.1 1382.38,-49.1 1388.38,-49.1 1388.38,-49.1 1486.12,-49.1 1486.12,-49.1 1492.12,-49.1 1498.12,-55.1 1498.12,-61.1 1498.12,-61.1 1498.12,-93.1 1498.12,-93.1 1498.12,-99.1 1492.12,-105.1 1486.12,-105.1"/>
<text xml:space="preserve" text-anchor="middle" x="1437.25" y="-91.6" font-family="Helvetica,sans-Serif" font-size="10.00">http_client.MemexClient</text>
<text xml:space="preserve" text-anchor="middle" x="1437.25" y="-79.6" font-family="Helvetica,sans-Serif" font-size="10.00">implementa MemexSink</text>
<text xml:space="preserve" text-anchor="middle" x="1437.25" y="-67.6" font-family="Helvetica,sans-Serif" font-size="10.00">ensure_source</text>
<text xml:space="preserve" text-anchor="middle" x="1437.25" y="-55.6" font-family="Helvetica,sans-Serif" font-size="10.00">configurable ingest_path</text>
</g>
<!-- HTTPC&#45;&gt;SNK -->
<g id="edge2" class="edge">
<title>HTTPC&#45;&gt;SNK</title>
<path fill="none" stroke="#7a4ddb" stroke-dasharray="5,2" d="M1480.07,-105.61C1520.84,-132.81 1585.07,-174.11 1643.5,-205.1 1649.15,-208.1 1655.08,-211.07 1661.08,-213.95"/>
<polygon fill="#7a4ddb" stroke="#7a4ddb" points="1659.28,-216.97 1669.82,-218.05 1662.26,-210.63 1659.28,-216.97"/>
<text xml:space="preserve" text-anchor="middle" x="1577.62" y="-191.23" font-family="Helvetica,sans-Serif" font-size="9.00">implements</text>
</g>
<!-- BRIDGE -->
<g id="node19" class="node">
<title>BRIDGE</title>
<path fill="#ffffff" stroke="#2f8f2f" stroke-width="2" d="M1775.25,-95.1C1775.25,-95.1 1680.5,-95.1 1680.5,-95.1 1674.5,-95.1 1668.5,-89.1 1668.5,-83.1 1668.5,-83.1 1668.5,-63.1 1668.5,-63.1 1668.5,-57.1 1674.5,-51.1 1680.5,-51.1 1680.5,-51.1 1775.25,-51.1 1775.25,-51.1 1781.25,-51.1 1787.25,-57.1 1787.25,-63.1 1787.25,-63.1 1787.25,-83.1 1787.25,-83.1 1787.25,-89.1 1781.25,-95.1 1775.25,-95.1"/>
<text xml:space="preserve" text-anchor="middle" x="1727.88" y="-81.6" font-family="Helvetica,sans-Serif" font-size="10.00">api/routers/bridge.py</text>
<text xml:space="preserve" text-anchor="middle" x="1727.88" y="-69.6" font-family="Helvetica,sans-Serif" font-size="10.00">POST /bridge/ingest</text>
<text xml:space="preserve" text-anchor="middle" x="1727.88" y="-57.6" font-family="Helvetica,sans-Serif" font-size="10.00">(recibe del cliente local)</text>
</g>
<!-- HTTPC&#45;&gt;BRIDGE -->
<g id="edge22" class="edge">
<title>HTTPC&#45;&gt;BRIDGE</title>
<path fill="none" stroke="#c97a00" stroke-width="1.6" d="M1498.4,-76.27C1544.15,-75.64 1607.24,-74.76 1655.53,-74.09"/>
<polygon fill="#c97a00" stroke="#c97a00" stroke-width="1.6" points="1655.41,-77.59 1665.37,-73.96 1655.32,-70.6 1655.41,-77.59"/>
<text xml:space="preserve" text-anchor="middle" x="1577.62" y="-88.15" font-family="Helvetica,sans-Serif" font-size="9.00">POST /bridge/ingest</text>
<text xml:space="preserve" text-anchor="middle" x="1577.62" y="-77.65" font-family="Helvetica,sans-Serif" font-size="9.00">Bearer</text>
</g>
<!-- SOURCES -->
<g id="node21" class="node">
<title>SOURCES</title>
<path fill="#ffffff" stroke="#2f8f2f" stroke-width="1.2" d="M2026,-95.1C2026,-95.1 1926.75,-95.1 1926.75,-95.1 1920.75,-95.1 1914.75,-89.1 1914.75,-83.1 1914.75,-83.1 1914.75,-63.1 1914.75,-63.1 1914.75,-57.1 1920.75,-51.1 1926.75,-51.1 1926.75,-51.1 2026,-51.1 2026,-51.1 2032,-51.1 2038,-57.1 2038,-63.1 2038,-63.1 2038,-83.1 2038,-83.1 2038,-89.1 2032,-95.1 2026,-95.1"/>
<text xml:space="preserve" text-anchor="middle" x="1976.38" y="-81.6" font-family="Helvetica,sans-Serif" font-size="10.00">api/routers/sources.py</text>
<text xml:space="preserve" text-anchor="middle" x="1976.38" y="-69.6" font-family="Helvetica,sans-Serif" font-size="10.00">CRUD + ensure +</text>
<text xml:space="preserve" text-anchor="middle" x="1976.38" y="-57.6" font-family="Helvetica,sans-Serif" font-size="10.00"> /sources/{id}/checkpoint</text>
</g>
<!-- HTTPC&#45;&gt;SOURCES -->
<g id="edge23" class="edge">
<title>HTTPC&#45;&gt;SOURCES</title>
<path fill="none" stroke="#c97a00" d="M1498.29,-54.26C1538.67,-40.14 1593.47,-23.38 1643.5,-16.1 1718.16,-5.24 1738.88,-3.41 1813.25,-16.1 1847.98,-22.03 1885.16,-34.62 1915.15,-46.46"/>
<polygon fill="#c97a00" stroke="#c97a00" points="1913.45,-49.55 1924.03,-50.04 1916.06,-43.05 1913.45,-49.55"/>
<text xml:space="preserve" text-anchor="middle" x="1727.88" y="-28.55" font-family="Helvetica,sans-Serif" font-size="9.00">ensure +</text>
<text xml:space="preserve" text-anchor="middle" x="1727.88" y="-18.05" font-family="Helvetica,sans-Serif" font-size="9.00">checkpoint</text>
</g>
<!-- IMAP_CLI -->
<g id="node6" class="node">
<title>IMAP_CLI</title>
<path fill="#ffffff" stroke="#2d6cdf" stroke-width="1.2" d="M1213.88,-93.1C1213.88,-93.1 1150.62,-93.1 1150.62,-93.1 1144.62,-93.1 1138.62,-87.1 1138.62,-81.1 1138.62,-81.1 1138.62,-69.1 1138.62,-69.1 1138.62,-63.1 1144.62,-57.1 1150.62,-57.1 1150.62,-57.1 1213.88,-57.1 1213.88,-57.1 1219.88,-57.1 1225.88,-63.1 1225.88,-69.1 1225.88,-69.1 1225.88,-81.1 1225.88,-81.1 1225.88,-87.1 1219.88,-93.1 1213.88,-93.1"/>
<text xml:space="preserve" text-anchor="middle" x="1182.25" y="-77.6" font-family="Helvetica,sans-Serif" font-size="10.00">cli.py</text>
<text xml:space="preserve" text-anchor="middle" x="1182.25" y="-65.6" font-family="Helvetica,sans-Serif" font-size="10.00">(deploy en VPS)</text>
</g>
<!-- IMAP_CLI&#45;&gt;RUNNER -->
<g id="edge28" class="edge">
<title>IMAP_CLI&#45;&gt;RUNNER</title>
<path fill="none" stroke="#2d6cdf" d="M1224.3,-93.56C1234.56,-98.25 1245.52,-103.31 1255.62,-108.1 1301.19,-129.71 1352.76,-155.23 1389.1,-173.39"/>
<polygon fill="#2d6cdf" stroke="#2d6cdf" points="1387.53,-176.52 1398.04,-177.86 1390.66,-170.26 1387.53,-176.52"/>
<text xml:space="preserve" text-anchor="middle" x="1311.12" y="-148.58" font-family="Helvetica,sans-Serif" font-size="9.00">drives</text>
</g>
<!-- IMAP_CLI&#45;&gt;HTTPC -->
<g id="edge29" class="edge">
<title>IMAP_CLI&#45;&gt;HTTPC</title>
<path fill="none" stroke="#2d6cdf" d="M1226.45,-75.45C1264.37,-75.75 1320.24,-76.19 1364.8,-76.54"/>
<polygon fill="#2d6cdf" stroke="#2d6cdf" points="1364.62,-80.04 1374.65,-76.62 1364.67,-73.04 1364.62,-80.04"/>
<text xml:space="preserve" text-anchor="middle" x="1311.12" y="-88.73" font-family="Helvetica,sans-Serif" font-size="9.00">ingest_path=</text>
<text xml:space="preserve" text-anchor="middle" x="1311.12" y="-78.23" font-family="Helvetica,sans-Serif" font-size="9.00">/ingest/batch</text>
</g>
<!-- IMAP_SRC -->
<g id="node7" class="node">
<title>IMAP_SRC</title>
<path fill="#ffffff" stroke="#2d6cdf" stroke-width="1.2" d="M1204.5,-166.1C1204.5,-166.1 1160,-166.1 1160,-166.1 1154,-166.1 1148,-160.1 1148,-154.1 1148,-154.1 1148,-134.1 1148,-134.1 1148,-128.1 1154,-122.1 1160,-122.1 1160,-122.1 1204.5,-122.1 1204.5,-122.1 1210.5,-122.1 1216.5,-128.1 1216.5,-134.1 1216.5,-134.1 1216.5,-154.1 1216.5,-154.1 1216.5,-160.1 1210.5,-166.1 1204.5,-166.1"/>
<text xml:space="preserve" text-anchor="middle" x="1182.25" y="-152.6" font-family="Helvetica,sans-Serif" font-size="10.00">ImapSource</text>
<text xml:space="preserve" text-anchor="middle" x="1182.25" y="-140.6" font-family="Helvetica,sans-Serif" font-size="10.00">ImapConfig</text>
<text xml:space="preserve" text-anchor="middle" x="1182.25" y="-128.6" font-family="Helvetica,sans-Serif" font-size="10.00">ImapClient</text>
</g>
<!-- IMAP_SRC&#45;&gt;SRC -->
<g id="edge1" class="edge">
<title>IMAP_SRC&#45;&gt;SRC</title>
<path fill="none" stroke="#7a4ddb" stroke-dasharray="5,2" d="M1216.9,-153.83C1230.94,-159.57 1246.15,-168.28 1255.62,-181.1 1299.6,-240.63 1241.04,-285.2 1284.5,-345.1 1310.01,-380.27 1328.6,-380.57 1370.75,-391.1 1431.55,-406.3 1449.94,-401.44 1511.75,-391.1 1542.27,-386 1616.03,-359.42 1668.66,-339.56"/>
<polygon fill="#7a4ddb" stroke="#7a4ddb" points="1669.69,-342.92 1677.8,-336.1 1667.21,-336.37 1669.69,-342.92"/>
<text xml:space="preserve" text-anchor="middle" x="1437.25" y="-402.71" font-family="Helvetica,sans-Serif" font-size="9.00">implements</text>
</g>
<!-- GMAIL -->
<g id="node24" class="node">
<title>GMAIL</title>
<path fill="#fffaf0" stroke="#c97a00" stroke-width="1.2" d="M1496.25,-369.6C1496.25,-373.47 1469.81,-376.6 1437.25,-376.6 1404.69,-376.6 1378.25,-373.47 1378.25,-369.6 1378.25,-369.6 1378.25,-306.6 1378.25,-306.6 1378.25,-302.74 1404.69,-299.6 1437.25,-299.6 1469.81,-299.6 1496.25,-302.74 1496.25,-306.6 1496.25,-306.6 1496.25,-369.6 1496.25,-369.6"/>
<path fill="none" stroke="#c97a00" stroke-width="1.2" d="M1496.25,-369.6C1496.25,-365.74 1469.81,-362.6 1437.25,-362.6 1404.69,-362.6 1378.25,-365.74 1378.25,-369.6"/>
<text xml:space="preserve" text-anchor="middle" x="1437.25" y="-352.6" font-family="Helvetica,sans-Serif" font-size="10.00">Gmail / Outlook / IMAP</text>
<text xml:space="preserve" text-anchor="middle" x="1437.25" y="-340.6" font-family="Helvetica,sans-Serif" font-size="10.00">universitario detrás de</text>
<text xml:space="preserve" text-anchor="middle" x="1437.25" y="-328.6" font-family="Helvetica,sans-Serif" font-size="10.00">firewall que el VPS no</text>
<text xml:space="preserve" text-anchor="middle" x="1437.25" y="-316.6" font-family="Helvetica,sans-Serif" font-size="10.00">alcanza</text>
</g>
<!-- IMAP_SRC&#45;&gt;GMAIL -->
<g id="edge30" class="edge">
<title>IMAP_SRC&#45;&gt;GMAIL</title>
<path fill="none" stroke="#555555" d="M1216.87,-154.3C1230.73,-160.09 1245.81,-168.72 1255.62,-181.1 1288.89,-223.08 1246.93,-259.93 1284.5,-298.1 1305.93,-319.87 1337.69,-330.25 1366.63,-335.03"/>
<polygon fill="#555555" stroke="#555555" points="1366.08,-338.49 1376.48,-336.44 1367.07,-331.56 1366.08,-338.49"/>
<text xml:space="preserve" text-anchor="middle" x="1311.12" y="-329.35" font-family="Helvetica,sans-Serif" font-size="9.00">IMAPS</text>
</g>
<!-- IMAP_OAUTH -->
<g id="node8" class="node">
<title>IMAP_OAUTH</title>
<path fill="#ffffff" stroke="#2d6cdf" stroke-width="1.2" d="M1218.75,-231.1C1218.75,-231.1 1145.75,-231.1 1145.75,-231.1 1139.75,-231.1 1133.75,-225.1 1133.75,-219.1 1133.75,-219.1 1133.75,-207.1 1133.75,-207.1 1133.75,-201.1 1139.75,-195.1 1145.75,-195.1 1145.75,-195.1 1218.75,-195.1 1218.75,-195.1 1224.75,-195.1 1230.75,-201.1 1230.75,-207.1 1230.75,-207.1 1230.75,-219.1 1230.75,-219.1 1230.75,-225.1 1224.75,-231.1 1218.75,-231.1"/>
<text xml:space="preserve" text-anchor="middle" x="1182.25" y="-215.6" font-family="Helvetica,sans-Serif" font-size="10.00">oauth/</text>
<text xml:space="preserve" text-anchor="middle" x="1182.25" y="-203.6" font-family="Helvetica,sans-Serif" font-size="10.00"> google · microsoft</text>
</g>
<!-- SCHED -->
<g id="node9" class="node">
<title>SCHED</title>
<path fill="#ffffff" stroke="#c97a00" stroke-width="1.2" d="M377.62,-415.1C377.62,-415.1 281.38,-415.1 281.38,-415.1 275.38,-415.1 269.38,-409.1 269.38,-403.1 269.38,-403.1 269.38,-391.1 269.38,-391.1 269.38,-385.1 275.38,-379.1 281.38,-379.1 281.38,-379.1 377.62,-379.1 377.62,-379.1 383.62,-379.1 389.62,-385.1 389.62,-391.1 389.62,-391.1 389.62,-403.1 389.62,-403.1 389.62,-409.1 383.62,-415.1 377.62,-415.1"/>
<text xml:space="preserve" text-anchor="middle" x="329.5" y="-399.6" font-family="Helvetica,sans-Serif" font-size="10.00">scheduler.Scheduler</text>
<text xml:space="preserve" text-anchor="middle" x="329.5" y="-387.6" font-family="Helvetica,sans-Serif" font-size="10.00">loop + backoff + signals</text>
</g>
<!-- RUN -->
<g id="node10" class="node">
<title>RUN</title>
<path fill="#ffffff" stroke="#c97a00" stroke-width="1.2" d="M640.75,-343.1C640.75,-343.1 528.75,-343.1 528.75,-343.1 522.75,-343.1 516.75,-337.1 516.75,-331.1 516.75,-331.1 516.75,-319.1 516.75,-319.1 516.75,-313.1 522.75,-307.1 528.75,-307.1 528.75,-307.1 640.75,-307.1 640.75,-307.1 646.75,-307.1 652.75,-313.1 652.75,-319.1 652.75,-319.1 652.75,-331.1 652.75,-331.1 652.75,-337.1 646.75,-343.1 640.75,-343.1"/>
<text xml:space="preserve" text-anchor="middle" x="584.75" y="-327.6" font-family="Helvetica,sans-Serif" font-size="10.00">run.execute_plugin</text>
<text xml:space="preserve" text-anchor="middle" x="584.75" y="-315.6" font-family="Helvetica,sans-Serif" font-size="10.00">run_ingestor + bookkeeping</text>
</g>
<!-- SCHED&#45;&gt;RUN -->
<g id="edge12" class="edge">
<title>SCHED&#45;&gt;RUN</title>
<path fill="none" stroke="#555555" d="M390.2,-380.13C425.33,-370.14 470.12,-357.41 507.76,-346.71"/>
<polygon fill="#555555" stroke="#555555" points="508.56,-350.12 517.23,-344.02 506.65,-343.39 508.56,-350.12"/>
<text xml:space="preserve" text-anchor="middle" x="456.75" y="-369.5" font-family="Helvetica,sans-Serif" font-size="9.00">dispatch</text>
</g>
<!-- DISC -->
<g id="node11" class="node">
<title>DISC</title>
<path fill="#ffffff" stroke="#c97a00" stroke-width="1.2" d="M613.75,-416.1C613.75,-416.1 555.75,-416.1 555.75,-416.1 549.75,-416.1 543.75,-410.1 543.75,-404.1 543.75,-404.1 543.75,-384.1 543.75,-384.1 543.75,-378.1 549.75,-372.1 555.75,-372.1 555.75,-372.1 613.75,-372.1 613.75,-372.1 619.75,-372.1 625.75,-378.1 625.75,-384.1 625.75,-384.1 625.75,-404.1 625.75,-404.1 625.75,-410.1 619.75,-416.1 613.75,-416.1"/>
<text xml:space="preserve" text-anchor="middle" x="584.75" y="-402.6" font-family="Helvetica,sans-Serif" font-size="10.00">discovery</text>
<text xml:space="preserve" text-anchor="middle" x="584.75" y="-390.6" font-family="Helvetica,sans-Serif" font-size="10.00">carga dinámica</text>
<text xml:space="preserve" text-anchor="middle" x="584.75" y="-378.6" font-family="Helvetica,sans-Serif" font-size="10.00">desde plugins/</text>
</g>
<!-- SCHED&#45;&gt;DISC -->
<g id="edge10" class="edge">
<title>SCHED&#45;&gt;DISC</title>
<path fill="none" stroke="#555555" d="M390.2,-396.4C433.28,-395.89 490.87,-395.2 532,-394.72"/>
<polygon fill="#555555" stroke="#555555" points="531.94,-398.22 541.89,-394.6 531.85,-391.22 531.94,-398.22"/>
<text xml:space="preserve" text-anchor="middle" x="456.75" y="-397.82" font-family="Helvetica,sans-Serif" font-size="9.00">scan plugins/</text>
</g>
<!-- STATE -->
<g id="node13" class="node">
<title>STATE</title>
<path fill="#ffffff" stroke="#c97a00" stroke-width="1.2" d="M938.62,-569.85C938.62,-572.89 911.68,-575.35 878.5,-575.35 845.32,-575.35 818.38,-572.89 818.38,-569.85 818.38,-569.85 818.38,-520.35 818.38,-520.35 818.38,-517.32 845.32,-514.85 878.5,-514.85 911.68,-514.85 938.62,-517.32 938.62,-520.35 938.62,-520.35 938.62,-569.85 938.62,-569.85"/>
<path fill="none" stroke="#c97a00" stroke-width="1.2" d="M938.62,-569.85C938.62,-566.82 911.68,-564.35 878.5,-564.35 845.32,-564.35 818.38,-566.82 818.38,-569.85"/>
<text xml:space="preserve" text-anchor="middle" x="878.5" y="-553.6" font-family="Helvetica,sans-Serif" font-size="10.00">state</text>
<text xml:space="preserve" text-anchor="middle" x="878.5" y="-541.6" font-family="Helvetica,sans-Serif" font-size="10.00">SQLite local</text>
<text xml:space="preserve" text-anchor="middle" x="878.5" y="-529.6" font-family="Helvetica,sans-Serif" font-size="10.00"> plugins · runs · pending</text>
</g>
<!-- SCHED&#45;&gt;STATE -->
<g id="edge11" class="edge">
<title>SCHED&#45;&gt;STATE</title>
<path fill="none" stroke="#555555" d="M390.22,-411.37C473.08,-431.43 627.44,-469.69 757.75,-507.1 773.92,-511.75 791.21,-517.04 807.48,-522.17"/>
<polygon fill="#555555" stroke="#555555" points="805.97,-525.36 816.56,-525.05 808.09,-518.69 805.97,-525.36"/>
<text xml:space="preserve" text-anchor="middle" x="584.75" y="-478.59" font-family="Helvetica,sans-Serif" font-size="9.00">enabled? schedule?</text>
</g>
<!-- RUN&#45;&gt;RUNNER -->
<g id="edge15" class="edge">
<title>RUN&#45;&gt;RUNNER</title>
<path fill="none" stroke="#555555" d="M609.33,-306.52C679.69,-252.41 896.25,-95.46 1106,-42.1 1206.5,-16.54 1255.64,-5.77 1337.75,-69.1 1359.13,-85.59 1354.64,-98.44 1370.75,-120.1 1383.59,-137.36 1399.15,-155.75 1411.88,-170.22"/>
<polygon fill="#555555" stroke="#555555" points="1409.13,-172.39 1418.39,-177.55 1414.36,-167.75 1409.13,-172.39"/>
<text xml:space="preserve" text-anchor="middle" x="1036.62" y="-76.54" font-family="Helvetica,sans-Serif" font-size="9.00">drives</text>
</g>
<!-- RUN&#45;&gt;HTTPC -->
<g id="edge16" class="edge">
<title>RUN&#45;&gt;HTTPC</title>
<path fill="none" stroke="#555555" d="M595.88,-306.59C621.83,-261.04 695.38,-142.93 790.75,-84.1 968.53,25.55 1047.49,2.51 1255.62,-15.1 1292.52,-18.23 1302.5,-17.77 1337.75,-29.1 1349.94,-33.02 1362.52,-38.2 1374.45,-43.7"/>
<polygon fill="#555555" stroke="#555555" points="1372.84,-46.81 1383.38,-47.94 1375.85,-40.49 1372.84,-46.81"/>
<text xml:space="preserve" text-anchor="middle" x="1036.62" y="-15.23" font-family="Helvetica,sans-Serif" font-size="9.00">ensure_source</text>
<text xml:space="preserve" text-anchor="middle" x="1036.62" y="-4.73" font-family="Helvetica,sans-Serif" font-size="9.00">resolve source_id</text>
</g>
<!-- RUN&#45;&gt;STATE -->
<g id="edge14" class="edge">
<title>RUN&#45;&gt;STATE</title>
<path fill="none" stroke="#555555" d="M626.03,-343.55C634.98,-348.03 644.31,-353.01 652.75,-358.1 668.27,-367.48 670.07,-372.99 685.75,-382.1 716.11,-399.74 734.12,-388.63 757.75,-414.6 788.25,-448.13 759.41,-478.36 790.75,-511.1 795.86,-516.44 801.91,-520.96 808.4,-524.78"/>
<polygon fill="#555555" stroke="#555555" points="806.34,-527.65 816.82,-529.18 809.58,-521.45 806.34,-527.65"/>
<text xml:space="preserve" text-anchor="middle" x="721.75" y="-416.55" font-family="Helvetica,sans-Serif" font-size="9.00">start_run / finalize</text>
</g>
<!-- PROTO -->
<g id="node14" class="node">
<title>PROTO</title>
<path fill="#ffe4c8" stroke="#c97a00" stroke-width="1.2" stroke-dasharray="5,2" d="M1235.62,-381.1C1235.62,-381.1 1128.88,-381.1 1128.88,-381.1 1122.88,-381.1 1116.88,-375.1 1116.88,-369.1 1116.88,-369.1 1116.88,-337.1 1116.88,-337.1 1116.88,-331.1 1122.88,-325.1 1128.88,-325.1 1128.88,-325.1 1235.62,-325.1 1235.62,-325.1 1241.62,-325.1 1247.62,-331.1 1247.62,-337.1 1247.62,-337.1 1247.62,-369.1 1247.62,-369.1 1247.62,-375.1 1241.62,-381.1 1235.62,-381.1"/>
<text xml:space="preserve" text-anchor="middle" x="1182.25" y="-367.6" font-family="Helvetica,sans-Serif" font-size="10.00">LocalPlugin (Protocol)</text>
<text xml:space="preserve" text-anchor="middle" x="1182.25" y="-355.6" font-family="Helvetica,sans-Serif" font-size="10.00">name/version/source_type</text>
<text xml:space="preserve" text-anchor="middle" x="1182.25" y="-343.6" font-family="Helvetica,sans-Serif" font-size="10.00">build_source</text>
<text xml:space="preserve" text-anchor="middle" x="1182.25" y="-331.6" font-family="Helvetica,sans-Serif" font-size="10.00">validate_requirements</text>
</g>
<!-- RUN&#45;&gt;PROTO -->
<g id="edge13" class="edge">
<title>RUN&#45;&gt;PROTO</title>
<path fill="none" stroke="#555555" d="M653.19,-328.28C765.03,-333.53 988.13,-344.02 1105.33,-349.53"/>
<polygon fill="#555555" stroke="#555555" points="1105.01,-353.02 1115.17,-350 1105.34,-346.03 1105.01,-353.02"/>
<text xml:space="preserve" text-anchor="middle" x="878.5" y="-344.75" font-family="Helvetica,sans-Serif" font-size="9.00">build_source(cfg)</text>
</g>
<!-- PLUGIN_UNI -->
<g id="node17" class="node">
<title>PLUGIN_UNI</title>
<path fill="#fffaf0" stroke="#c97a00" stroke-width="1.2" d="M929.25,-412.1C929.25,-412.1 827.75,-412.1 827.75,-412.1 821.75,-412.1 815.75,-406.1 815.75,-400.1 815.75,-400.1 815.75,-388.1 815.75,-388.1 815.75,-382.1 821.75,-376.1 827.75,-376.1 827.75,-376.1 929.25,-376.1 929.25,-376.1 935.25,-376.1 941.25,-382.1 941.25,-388.1 941.25,-388.1 941.25,-400.1 941.25,-400.1 941.25,-406.1 935.25,-412.1 929.25,-412.1"/>
<text xml:space="preserve" text-anchor="middle" x="878.5" y="-396.6" font-family="Helvetica,sans-Serif" font-size="10.00">imap&#45;university</text>
<text xml:space="preserve" text-anchor="middle" x="878.5" y="-384.6" font-family="Helvetica,sans-Serif" font-size="10.00">(wrapper de ImapSource)</text>
</g>
<!-- DISC&#45;&gt;PLUGIN_UNI -->
<g id="edge19" class="edge">
<title>DISC&#45;&gt;PLUGIN_UNI</title>
<path fill="none" stroke="#555555" d="M626.21,-381.85C644.25,-376.99 665.87,-372 685.75,-369.6 717.52,-365.77 725.91,-366.38 757.75,-369.6 772.96,-371.14 789.08,-373.76 804.41,-376.72"/>
<polygon fill="#555555" stroke="#555555" points="803.43,-380.09 813.92,-378.62 804.81,-373.23 803.43,-380.09"/>
<text xml:space="preserve" text-anchor="middle" x="721.75" y="-371.55" font-family="Helvetica,sans-Serif" font-size="9.00">importlib</text>
</g>
<!-- PLUGIN_X -->
<g id="node18" class="node">
<title>PLUGIN_X</title>
<path fill="#fffaf0" stroke="#c97a00" stroke-width="1.2" stroke-dasharray="5,2" d="M910.88,-477.1C910.88,-477.1 846.12,-477.1 846.12,-477.1 840.12,-477.1 834.12,-471.1 834.12,-465.1 834.12,-465.1 834.12,-453.1 834.12,-453.1 834.12,-447.1 840.12,-441.1 846.12,-441.1 846.12,-441.1 910.88,-441.1 910.88,-441.1 916.88,-441.1 922.88,-447.1 922.88,-453.1 922.88,-453.1 922.88,-465.1 922.88,-465.1 922.88,-471.1 916.88,-477.1 910.88,-477.1"/>
<text xml:space="preserve" text-anchor="middle" x="878.5" y="-461.6" font-family="Helvetica,sans-Serif" font-size="10.00">...futuros plugins</text>
<text xml:space="preserve" text-anchor="middle" x="878.5" y="-449.6" font-family="Helvetica,sans-Serif" font-size="10.00">(slack, AW, etc.)</text>
</g>
<!-- DISC&#45;&gt;PLUGIN_X -->
<g id="edge20" class="edge">
<title>DISC&#45;&gt;PLUGIN_X</title>
<path fill="none" stroke="#555555" stroke-dasharray="1,5" d="M626.21,-409.02C644.25,-415.27 665.87,-422.2 685.75,-427.1 731.38,-438.37 784.1,-446.85 822.7,-452.24"/>
<polygon fill="#555555" stroke="#555555" points="821.82,-455.65 832.2,-453.54 822.77,-448.71 821.82,-455.65"/>
<text xml:space="preserve" text-anchor="middle" x="721.75" y="-443.26" font-family="Helvetica,sans-Serif" font-size="9.00">importlib</text>
</g>
<!-- REG -->
<g id="node12" class="node">
<title>REG</title>
<path fill="#ffffff" stroke="#c97a00" stroke-width="1.2" d="M370.88,-511.1C370.88,-511.1 288.12,-511.1 288.12,-511.1 282.12,-511.1 276.12,-505.1 276.12,-499.1 276.12,-499.1 276.12,-487.1 276.12,-487.1 276.12,-481.1 282.12,-475.1 288.12,-475.1 288.12,-475.1 370.88,-475.1 370.88,-475.1 376.88,-475.1 382.88,-481.1 382.88,-487.1 382.88,-487.1 382.88,-499.1 382.88,-499.1 382.88,-505.1 376.88,-511.1 370.88,-511.1"/>
<text xml:space="preserve" text-anchor="middle" x="329.5" y="-495.6" font-family="Helvetica,sans-Serif" font-size="10.00">registry</text>
<text xml:space="preserve" text-anchor="middle" x="329.5" y="-483.6" font-family="Helvetica,sans-Serif" font-size="10.00">install/enable/disable</text>
</g>
<!-- REG&#45;&gt;STATE -->
<g id="edge21" class="edge">
<title>REG&#45;&gt;STATE</title>
<path fill="none" stroke="#555555" d="M371.16,-511.65C388.79,-518.8 409.91,-526.18 429.75,-530.1 560.78,-556.01 717.49,-553.91 806.47,-549.72"/>
<polygon fill="#555555" stroke="#555555" points="806.45,-553.22 816.26,-549.23 806.1,-546.23 806.45,-553.22"/>
<text xml:space="preserve" text-anchor="middle" x="584.75" y="-553.66" font-family="Helvetica,sans-Serif" font-size="9.00">enable/disable</text>
</g>
<!-- CFG_L -->
<g id="node15" class="node">
<title>CFG_L</title>
<path fill="#ffffff" stroke="#c97a00" stroke-width="1.2" d="M384.75,-584.1C384.75,-584.1 274.25,-584.1 274.25,-584.1 268.25,-584.1 262.25,-578.1 262.25,-572.1 262.25,-572.1 262.25,-552.1 262.25,-552.1 262.25,-546.1 268.25,-540.1 274.25,-540.1 274.25,-540.1 384.75,-540.1 384.75,-540.1 390.75,-540.1 396.75,-546.1 396.75,-552.1 396.75,-552.1 396.75,-572.1 396.75,-572.1 396.75,-578.1 390.75,-584.1 384.75,-584.1"/>
<text xml:space="preserve" text-anchor="middle" x="329.5" y="-570.6" font-family="Helvetica,sans-Serif" font-size="10.00">config</text>
<text xml:space="preserve" text-anchor="middle" x="329.5" y="-558.6" font-family="Helvetica,sans-Serif" font-size="10.00">bridge_url + token</text>
<text xml:space="preserve" text-anchor="middle" x="329.5" y="-546.6" font-family="Helvetica,sans-Serif" font-size="10.00">~/.memex&#45;local/config.toml</text>
</g>
<!-- CLI_L -->
<g id="node16" class="node">
<title>CLI_L</title>
<path fill="#ffffff" stroke="#c97a00" stroke-width="1.2" d="M125,-463.1C125,-463.1 28,-463.1 28,-463.1 22,-463.1 16,-457.1 16,-451.1 16,-451.1 16,-439.1 16,-439.1 16,-433.1 22,-427.1 28,-427.1 28,-427.1 125,-427.1 125,-427.1 131,-427.1 137,-433.1 137,-439.1 137,-439.1 137,-451.1 137,-451.1 137,-457.1 131,-463.1 125,-463.1"/>
<text xml:space="preserve" text-anchor="middle" x="76.5" y="-447.6" font-family="Helvetica,sans-Serif" font-size="10.00">cli &#160;memex&#45;local</text>
<text xml:space="preserve" text-anchor="middle" x="76.5" y="-435.6" font-family="Helvetica,sans-Serif" font-size="10.00">daemon / plugin / status</text>
</g>
<!-- CLI_L&#45;&gt;SCHED -->
<g id="edge6" class="edge">
<title>CLI_L&#45;&gt;SCHED</title>
<path fill="none" stroke="#555555" d="M137.19,-433.04C148.1,-430.88 159.39,-428.65 170,-426.6 198.74,-421.06 230.46,-415.12 257.92,-410.03"/>
<polygon fill="#555555" stroke="#555555" points="258.32,-413.52 267.52,-408.26 257.05,-406.63 258.32,-413.52"/>
<text xml:space="preserve" text-anchor="middle" x="199.62" y="-428.55" font-family="Helvetica,sans-Serif" font-size="9.00">daemon start</text>
</g>
<!-- CLI_L&#45;&gt;DISC -->
<g id="edge8" class="edge">
<title>CLI_L&#45;&gt;DISC</title>
<path fill="none" stroke="#555555" d="M105.8,-426.55C140.86,-404.7 203.2,-369.5 262.25,-354.6 357.74,-330.51 387.54,-327.04 483.75,-348.1 501.21,-351.93 519.25,-359.09 535.13,-366.65"/>
<polygon fill="#555555" stroke="#555555" points="533.35,-369.68 543.87,-370.98 536.46,-363.4 533.35,-369.68"/>
<text xml:space="preserve" text-anchor="middle" x="329.5" y="-356.55" font-family="Helvetica,sans-Serif" font-size="9.00">scan</text>
</g>
<!-- CLI_L&#45;&gt;REG -->
<g id="edge7" class="edge">
<title>CLI_L&#45;&gt;REG</title>
<path fill="none" stroke="#555555" d="M137.3,-456.54C175.57,-463.86 225.2,-473.35 264.3,-480.83"/>
<polygon fill="#555555" stroke="#555555" points="263.58,-484.25 274.06,-482.69 264.9,-477.38 263.58,-484.25"/>
<text xml:space="preserve" text-anchor="middle" x="199.62" y="-475.35" font-family="Helvetica,sans-Serif" font-size="9.00">install / enable</text>
</g>
<!-- CLI_L&#45;&gt;STATE -->
<g id="edge9" class="edge">
<title>CLI_L&#45;&gt;STATE</title>
<path fill="none" stroke="#555555" d="M137.33,-444.23C201.79,-444.18 307.16,-446.72 396.75,-461.1 451.36,-469.87 462.59,-482.88 516.75,-494.1 616.55,-514.79 733.63,-529.64 806.71,-537.81"/>
<polygon fill="#555555" stroke="#555555" points="806.22,-541.27 816.54,-538.89 806.99,-534.32 806.22,-541.27"/>
<text xml:space="preserve" text-anchor="middle" x="456.75" y="-487.53" font-family="Helvetica,sans-Serif" font-size="9.00">status / runs</text>
</g>
<!-- CLI_L&#45;&gt;CFG_L -->
<g id="edge5" class="edge">
<title>CLI_L&#45;&gt;CFG_L</title>
<path fill="none" stroke="#555555" d="M113.8,-463.58C130.79,-472.12 151.35,-482.29 170,-491.1 201.57,-506.02 237,-521.96 266.35,-534.96"/>
<polygon fill="#555555" stroke="#555555" points="264.92,-538.15 275.48,-538.99 267.75,-531.75 264.92,-538.15"/>
<text xml:space="preserve" text-anchor="middle" x="199.62" y="-519.04" font-family="Helvetica,sans-Serif" font-size="9.00">carga</text>
</g>
<!-- PLUGIN_UNI&#45;&gt;IMAP_SRC -->
<g id="edge4" class="edge">
<title>PLUGIN_UNI&#45;&gt;IMAP_SRC</title>
<path fill="none" stroke="#7a4ddb" stroke-dasharray="5,2" d="M941.84,-386.58C951.14,-383.27 960.02,-378.62 967.25,-372.1 999.06,-343.45 976.78,-317.41 1000.25,-281.6 1035.8,-227.38 1052.8,-218.17 1106,-181.1 1115.59,-174.43 1126.56,-168.3 1137.1,-163.03"/>
<polygon fill="#7a4ddb" stroke="#7a4ddb" points="1138.58,-166.21 1146.07,-158.72 1135.54,-159.9 1138.58,-166.21"/>
<text xml:space="preserve" text-anchor="middle" x="1036.62" y="-283.55" font-family="Helvetica,sans-Serif" font-size="9.00">reusa</text>
</g>
<!-- PLUGIN_UNI&#45;&gt;PROTO -->
<g id="edge3" class="edge">
<title>PLUGIN_UNI&#45;&gt;PROTO</title>
<path fill="none" stroke="#c97a00" stroke-dasharray="5,2" d="M941.66,-385.66C989.05,-379.22 1054.57,-370.32 1105.11,-363.45"/>
<polygon fill="#c97a00" stroke="#c97a00" points="1105.37,-366.95 1114.81,-362.13 1104.43,-360.01 1105.37,-366.95"/>
<text xml:space="preserve" text-anchor="middle" x="1036.62" y="-379.23" font-family="Helvetica,sans-Serif" font-size="9.00">implements</text>
</g>
<!-- INSERT -->
<g id="node22" class="node">
<title>INSERT</title>
<path fill="#ffffff" stroke="#2f8f2f" stroke-width="1.2" d="M2026.38,-160.1C2026.38,-160.1 1926.38,-160.1 1926.38,-160.1 1920.38,-160.1 1914.38,-154.1 1914.38,-148.1 1914.38,-148.1 1914.38,-136.1 1914.38,-136.1 1914.38,-130.1 1920.38,-124.1 1926.38,-124.1 1926.38,-124.1 2026.38,-124.1 2026.38,-124.1 2032.38,-124.1 2038.38,-130.1 2038.38,-136.1 2038.38,-136.1 2038.38,-148.1 2038.38,-148.1 2038.38,-154.1 2032.38,-160.1 2026.38,-160.1"/>
<text xml:space="preserve" text-anchor="middle" x="1976.38" y="-144.6" font-family="Helvetica,sans-Serif" font-size="10.00">core.inbox.insert_record</text>
<text xml:space="preserve" text-anchor="middle" x="1976.38" y="-132.6" font-family="Helvetica,sans-Serif" font-size="10.00">INSERT ON CONFLICT</text>
</g>
<!-- BRIDGE&#45;&gt;INSERT -->
<g id="edge24" class="edge">
<title>BRIDGE&#45;&gt;INSERT</title>
<path fill="none" stroke="#555555" d="M1788.23,-89.72C1822.7,-99.37 1866.39,-111.6 1902.88,-121.81"/>
<polygon fill="#555555" stroke="#555555" points="1901.93,-125.18 1912.5,-124.5 1903.82,-118.44 1901.93,-125.18"/>
<text xml:space="preserve" text-anchor="middle" x="1860.38" y="-115.73" font-family="Helvetica,sans-Serif" font-size="9.00">por record</text>
</g>
<!-- INGEST -->
<g id="node20" class="node">
<title>INGEST</title>
<path fill="#ffffff" stroke="#2f8f2f" stroke-width="1.2" d="M1785,-168.1C1785,-168.1 1670.75,-168.1 1670.75,-168.1 1664.75,-168.1 1658.75,-162.1 1658.75,-156.1 1658.75,-156.1 1658.75,-136.1 1658.75,-136.1 1658.75,-130.1 1664.75,-124.1 1670.75,-124.1 1670.75,-124.1 1785,-124.1 1785,-124.1 1791,-124.1 1797,-130.1 1797,-136.1 1797,-136.1 1797,-156.1 1797,-156.1 1797,-162.1 1791,-168.1 1785,-168.1"/>
<text xml:space="preserve" text-anchor="middle" x="1727.88" y="-154.6" font-family="Helvetica,sans-Serif" font-size="10.00">api/routers/ingest.py</text>
<text xml:space="preserve" text-anchor="middle" x="1727.88" y="-142.6" font-family="Helvetica,sans-Serif" font-size="10.00">POST /ingest/batch</text>
<text xml:space="preserve" text-anchor="middle" x="1727.88" y="-130.6" font-family="Helvetica,sans-Serif" font-size="10.00">(usado por imap&#45;cli en VPS)</text>
</g>
<!-- INGEST&#45;&gt;INSERT -->
<g id="edge25" class="edge">
<title>INGEST&#45;&gt;INSERT</title>
<path fill="none" stroke="#555555" d="M1797.54,-144.99C1830.16,-144.46 1869.18,-143.83 1902.34,-143.29"/>
<polygon fill="#555555" stroke="#555555" points="1902.35,-146.79 1912.3,-143.13 1902.24,-139.79 1902.35,-146.79"/>
<text xml:space="preserve" text-anchor="middle" x="1860.38" y="-146.17" font-family="Helvetica,sans-Serif" font-size="9.00">por record</text>
</g>
<!-- DB -->
<g id="node23" class="node">
<title>DB</title>
<path fill="#ffffff" stroke="#2f8f2f" stroke-width="1.2" d="M2211.38,-133.85C2211.38,-136.89 2187.62,-139.35 2158.38,-139.35 2129.13,-139.35 2105.38,-136.89 2105.38,-133.85 2105.38,-133.85 2105.38,-84.35 2105.38,-84.35 2105.38,-81.32 2129.13,-78.85 2158.38,-78.85 2187.62,-78.85 2211.38,-81.32 2211.38,-84.35 2211.38,-84.35 2211.38,-133.85 2211.38,-133.85"/>
<path fill="none" stroke="#2f8f2f" stroke-width="1.2" d="M2211.38,-133.85C2211.38,-130.82 2187.62,-128.35 2158.38,-128.35 2129.13,-128.35 2105.38,-130.82 2105.38,-133.85"/>
<text xml:space="preserve" text-anchor="middle" x="2158.38" y="-117.6" font-family="Helvetica,sans-Serif" font-size="10.00">Postgres</text>
<text xml:space="preserve" text-anchor="middle" x="2158.38" y="-105.6" font-family="Helvetica,sans-Serif" font-size="10.00"> sources · inbox</text>
<text xml:space="preserve" text-anchor="middle" x="2158.38" y="-93.6" font-family="Helvetica,sans-Serif" font-size="10.00"> source_checkpoints</text>
</g>
<!-- SOURCES&#45;&gt;DB -->
<g id="edge27" class="edge">
<title>SOURCES&#45;&gt;DB</title>
<path fill="none" stroke="#555555" d="M2038.57,-85.34C2056.37,-88.9 2075.87,-92.8 2093.82,-96.39"/>
<polygon fill="#555555" stroke="#555555" points="2093.08,-99.82 2103.58,-98.34 2094.46,-92.95 2093.08,-99.82"/>
</g>
<!-- INSERT&#45;&gt;DB -->
<g id="edge26" class="edge">
<title>INSERT&#45;&gt;DB</title>
<path fill="none" stroke="#555555" d="M2038.82,-130.84C2056.53,-127.59 2075.89,-124.04 2093.73,-120.77"/>
<polygon fill="#555555" stroke="#555555" points="2094.21,-124.24 2103.42,-119 2092.95,-117.36 2094.21,-124.24"/>
</g>
</g>
</svg>
